<?xml version="1.0" encoding="utf-8"?>
<!-- created with bpmn-js / http://bpmn.io -->
<!DOCTYPE svg PUBLIC "-//W3C//DTD SVG 1.1//EN" "http://www.w3.org/Graphics/SVG/1.1/DTD/svg11.dtd">
<svg xmlns="http://www.w3.org/2000/svg" xmlns:xlink="http://www.w3.org/1999/xlink" width="774" height="466" viewBox="107 -223 774 466" version="1.1"><defs><marker viewBox="0 0 20 20" markerWidth="10" markerHeight="10" orient="auto" refX="11" refY="10" id="markerSiltb0jv41f5b"><path d="M 1 5 L 11 10 L 1 15 Z" style="stroke-width: 1; stroke-linecap: round; stroke-dasharray: 10000, 1;" fill="#000000"/></marker><marker viewBox="0 0 20 20" markerWidth="20" markerHeight="20" orient="auto" refX="6" refY="6" id="markerSiltb0jv41f5d"><circle cx="6" cy="6" r="3.5" style="stroke-width: 1; stroke-linecap: round; stroke-dasharray: 10000, 1;" fill="#ffffff" stroke="#000000"/></marker><marker viewBox="0 0 20 20" markerWidth="20" markerHeight="20" orient="auto" refX="8.5" refY="5" id="markerSiltb0jv41f5f"><path d="m 1 5 l 0 -3 l 7 3 l -7 3 z" style="stroke-width: 1; stroke-linecap: butt; stroke-dasharray: 10000, 1;" fill="#ffffff" stroke="#000000"/></marker><marker viewBox="0 0 20 20" markerWidth="10" markerHeight="10" orient="auto" refX="1" refY="10" id="markerSiltb0jv41f5h"><path d="M 11 5 L 1 10 L 11 15" style="stroke-width: 1.5; stroke-linecap: round; stroke-dasharray: 10000, 1;" fill="none" stroke="#000000"/></marker><marker viewBox="0 0 20 20" markerWidth="10" markerHeight="10" orient="auto" refX="12" refY="10" id="markerSiltb0jv41f5j"><path d="M 1 5 L 11 10 L 1 15" style="stroke-width: 1.5; stroke-linecap: round; stroke-dasharray: 10000, 1;" fill="none" stroke="#000000"/></marker><marker viewBox="0 0 20 20" markerWidth="10" markerHeight="10" orient="auto" refX="-1" refY="10" id="markerSiltb0jv41f5l"><path d="M 0 10 L 8 6 L 16 10 L 8 14 Z" style="stroke-width: 1; stroke-linecap: round; stroke-dasharray: 10000, 1;" fill="#ffffff" stroke="#000000"/></marker><marker viewBox="0 0 20 20" markerWidth="10" markerHeight="10" orient="auto" refX="-5" refY="10" id="markerSiltb0jv41f5n"><path d="M 1 4 L 5 16" style="stroke-width: 1; stroke-linecap: round; stroke-dasharray: 10000, 1;" fill="#000000" stroke="#000000"/></marker></defs><g xmlns="http://www.w3.org/2000/svg" class="djs-group"><g style="display: block;" transform="matrix(1,0,0,1,113,-79)" data-element-id="Participant_1509f4h" class="djs-element djs-shape"><g class="djs-visual"><rect fill="#ffffff" stroke="#000000" style="stroke-width: 2;" ry="0" rx="0" height="316" width="762" y="0" x="0"></rect><polyline stroke="#000000" fill="none" style="stroke-width: 2;" points="30,0 30,316 "></polyline><text transform="matrix(0,-1,1,0,0,316)" class=" djs-label" style="font-family: Arial,sans-serif; font-size: 12px;"><tspan y="18.5" x="129">ANDROID</tspan></text></g><rect class="djs-hit" stroke="#ffffff" fill="none" style="stroke-opacity: 0; stroke-width: 15;" height="316" width="762" y="0" x="0"></rect><rect class="djs-outline" fill="none" style="" height="328" width="774" y="-6" x="-6"></rect></g><g class="djs-children"><g class="djs-group"><g style="display: block;" transform="matrix(1,0,0,1,163,61)" data-element-id="StartEvent_1" class="djs-element djs-shape"><g class="djs-visual"><circle fill="#ffffff" stroke="#000000" style="stroke-width: 2;" r="18" cy="18" cx="18"></circle></g><rect class="djs-hit" stroke="#ffffff" fill="none" style="stroke-opacity: 0; stroke-width: 15;" height="36" width="36" y="0" x="0"></rect><rect class="djs-outline" fill="none" style="" height="48" width="48" y="-6" x="-6"></rect></g></g><g class="djs-group"><g style="display: block;" transform="matrix(1,0,0,1,510,39)" data-element-id="SendTask_0e920uc" class="djs-element djs-shape"><g class="djs-visual"><rect fill="#ffffff" stroke="#000000" style="stroke-width: 2;" ry="10" rx="10" height="80" width="100" y="0" x="0"></rect><text class=" djs-label" style="font-family: Arial,sans-serif; font-size: 12px;"><tspan y="43.5" x="9">Stwórz przepis</tspan></text><path stroke="#ffffff" fill="#000000" style="stroke-width: 1;" d="m 5.984999999999999,4.997999999999999 l 0,14 l 21,0 l 0,-14 z l 10.5,6 l 10.5,-6"></path></g><rect class="djs-hit" stroke="#ffffff" fill="none" style="stroke-opacity: 0; stroke-width: 15;" height="80" width="100" y="0" x="0"></rect><rect class="djs-outline" fill="none" style="" height="92" width="112" y="-6" x="-6"></rect></g></g><g class="djs-group"><g style="display: block;" transform="matrix(1,0,0,1,663,39)" data-element-id="ReceiveTask_0b3byai" class="djs-element djs-shape"><g class="djs-visual"><rect fill="#ffffff" stroke="#000000" style="stroke-width: 2;" ry="10" rx="10" height="80" width="100" y="0" x="0"></rect><text class=" djs-label" style="font-family: Arial,sans-serif; font-size: 12px;"><tspan y="36.5" x="24.5">Wyświetl </tspan><tspan y="50.5" x="28.5">przepis </tspan></text><path stroke="#000000" fill="none" style="stroke-width: 1;" d="m 6.3,5.6000000000000005 l 0,12.6 l 18.900000000000002,0 l 0,-12.6 z l 9.450000000000001,5.4 l 9.450000000000001,-5.4"></path></g><rect class="djs-hit" stroke="#ffffff" fill="none" style="stroke-opacity: 0; stroke-width: 15;" height="80" width="100" y="0" x="0"></rect><rect class="djs-outline" fill="none" style="" height="92" width="112" y="-6" x="-6"></rect></g></g><g class="djs-group"><g style="display: block;" transform="matrix(1,0,0,1,773,146)" data-element-id="EndEvent_0j04po3" class="djs-element djs-shape"><g class="djs-visual"><circle fill="#ffffff" stroke="#000000" style="stroke-width: 4;" r="18" cy="18" cx="18"></circle><path stroke="#000000" fill="#000000" style="stroke-width: 1;" d="m 7.92,18 9,-6.5 0,13 z m 9.3,-0.4 8.7,-6.1 0,13 -8.7,-6.1 z"></path></g><rect class="djs-hit" stroke="#ffffff" fill="none" style="stroke-opacity: 0; stroke-width: 15;" height="36" width="36" y="0" x="0"></rect><rect class="djs-outline" fill="none" style="" height="48" width="48" y="-6" x="-6"></rect></g></g><g class="djs-group"><g style="display: block;" transform="matrix(1,0,0,1,819,61)" data-element-id="EndEvent_1t7hhvf" class="djs-element djs-shape"><g class="djs-visual"><circle fill="#ffffff" stroke="#000000" style="stroke-width: 4;" r="18" cy="18" cx="18"></circle></g><rect class="djs-hit" stroke="#ffffff" fill="none" style="stroke-opacity: 0; stroke-width: 15;" height="36" width="36" y="0" x="0"></rect><rect class="djs-outline" fill="none" style="" height="48" width="48" y="-6" x="-6"></rect></g></g><g class="djs-group"><g style="display: block;" transform="matrix(1,0,0,1,220,54)" data-element-id="ParallelGateway_0rwn28k" class="djs-element djs-shape"><g class="djs-visual"><polygon fill="#ffffff" stroke="#000000" style="stroke-width: 2;" points="25,0,50,25,25,50,0,25"></polygon><path stroke="#000000" fill="#000000" style="stroke-width: 1;" d="m 23,10 0,12.5 -12.5,0 0,5 12.5,0 0,12.5 5,0 0,-12.5 12.5,0 0,-5 -12.5,0 0,-12.5 -5,0 z"></path></g><rect class="djs-hit" stroke="#ffffff" fill="none" style="stroke-opacity: 0; stroke-width: 15;" height="50" width="50" y="0" x="0"></rect><rect class="djs-outline" fill="none" style="" height="62" width="62" y="-6" x="-6"></rect></g></g><g class="djs-group"><g style="display: block;" transform="matrix(1,0,0,1,423,54)" data-element-id="ParallelGateway_10z0dp1" class="djs-element djs-shape"><g class="djs-visual"><polygon fill="#ffffff" stroke="#000000" style="stroke-width: 2;" points="25,0,50,25,25,50,0,25"></polygon><path stroke="#000000" fill="#000000" style="stroke-width: 1;" d="m 23,10 0,12.5 -12.5,0 0,5 12.5,0 0,12.5 5,0 0,-12.5 12.5,0 0,-5 -12.5,0 0,-12.5 -5,0 z"></path></g><rect class="djs-hit" stroke="#ffffff" fill="none" style="stroke-opacity: 0; stroke-width: 15;" height="50" width="50" y="0" x="0"></rect><rect class="djs-outline" fill="none" style="" height="62" width="62" y="-6" x="-6"></rect></g></g><g class="djs-group"><g style="display: block;" transform="matrix(1,0,0,1,304,137)" data-element-id="UserTask_1cl2xw8" class="djs-element djs-shape"><g class="djs-visual"><rect fill="#ffffff" stroke="#000000" style="stroke-width: 2;" ry="10" rx="10" height="80" width="100" y="0" x="0"></rect><text class=" djs-label" style="font-family: Arial,sans-serif; font-size: 12px;"><tspan y="36.5" x="19.5">Podaj listę </tspan><tspan y="50.5" x="20">produktów </tspan></text><path stroke="#000000" fill="none" style="stroke-width: 0.5;" d="m 15,12 c 0.909,-0.845 1.594,-2.049 1.594,-3.385 0,-2.554 -1.805,-4.62199999 -4.357,-4.62199999 -2.55199998,0 -4.28799998,2.06799999 -4.28799998,4.62199999 0,1.348 0.974,2.562 1.89599998,3.405 -0.52899998,0.187 -5.669,2.097 -5.794,4.7560005 v 6.718 h 17 v -6.718 c 0,-2.2980005 -5.5279996,-4.5950005 -6.0509996,-4.7760005 zm -8,6 l 0,5.5 m 11,0 l 0,-5"></path><path stroke="#000000" fill="none" style="stroke-width: 0.5;" d="m 15,12 m 2.162,1.009 c 0,2.4470005 -2.158,4.4310005 -4.821,4.4310005 -2.66499998,0 -4.822,-1.981 -4.822,-4.4310005 "></path><path stroke="#000000" fill="#000000" style="stroke-width: 0.5;" d="m 15,12 m -6.9,-3.80 c 0,0 2.25099998,-2.358 4.27399998,-1.177 2.024,1.181 4.221,1.537 4.124,0.965 -0.098,-0.57 -0.117,-3.79099999 -4.191,-4.13599999 -3.57499998,0.001 -4.20799998,3.36699999 -4.20699998,4.34799999 z"></path></g><rect class="djs-hit" stroke="#ffffff" fill="none" style="stroke-opacity: 0; stroke-width: 15;" height="80" width="100" y="0" x="0"></rect><rect class="djs-outline" fill="none" style="" height="92" width="112" y="-6" x="-6"></rect></g></g><g class="djs-group"><g style="display: block;" transform="matrix(1,0,0,1,304,-59)" data-element-id="UserTask_1g0zl0j" class="djs-element djs-shape"><g class="djs-visual"><rect fill="#ffffff" stroke="#000000" style="stroke-width: 2;" ry="10" rx="10" height="80" width="100" y="0" x="0"></rect><text class=" djs-label" style="font-family: Arial,sans-serif; font-size: 12px;"><tspan y="36.5" x="13.5">Podaj nazwę </tspan><tspan y="50.5" x="25">przepisu </tspan></text><path stroke="#000000" fill="none" style="stroke-width: 0.5;" d="m 15,12 c 0.909,-0.845 1.594,-2.049 1.594,-3.385 0,-2.554 -1.805,-4.62199999 -4.357,-4.62199999 -2.55199998,0 -4.28799998,2.06799999 -4.28799998,4.62199999 0,1.348 0.974,2.562 1.89599998,3.405 -0.52899998,0.187 -5.669,2.097 -5.794,4.7560005 v 6.718 h 17 v -6.718 c 0,-2.2980005 -5.5279996,-4.5950005 -6.0509996,-4.7760005 zm -8,6 l 0,5.5 m 11,0 l 0,-5"></path><path stroke="#000000" fill="none" style="stroke-width: 0.5;" d="m 15,12 m 2.162,1.009 c 0,2.4470005 -2.158,4.4310005 -4.821,4.4310005 -2.66499998,0 -4.822,-1.981 -4.822,-4.4310005 "></path><path stroke="#000000" fill="#000000" style="stroke-width: 0.5;" d="m 15,12 m -6.9,-3.80 c 0,0 2.25099998,-2.358 4.27399998,-1.177 2.024,1.181 4.221,1.537 4.124,0.965 -0.098,-0.57 -0.117,-3.79099999 -4.191,-4.13599999 -3.57499998,0.001 -4.20799998,3.36699999 -4.20699998,4.34799999 z"></path></g><rect class="djs-hit" stroke="#ffffff" fill="none" style="stroke-opacity: 0; stroke-width: 15;" height="80" width="100" y="0" x="0"></rect><rect class="djs-outline" fill="none" style="" height="92" width="112" y="-6" x="-6"></rect></g></g><g class="djs-group"><g style="display: none;" transform="matrix(1,0,0,1,184,15)" data-element-id="SequenceFlow_0h43ip6_label" class="djs-element djs-shape"><g class="djs-visual"><text class=" djs-label" style="font-family: Arial,sans-serif; font-size: 11px;"><tspan y="0" x="45"></tspan></text></g><rect class="djs-hit" stroke="#ffffff" fill="none" style="stroke-opacity: 0; stroke-width: 15;" height="20" width="90" y="0" x="0"></rect><rect class="djs-outline" fill="none" style="" height="32" width="102" y="-6" x="-6"></rect></g></g><g class="djs-group"><g style="display: none;" transform="matrix(1,0,0,1,242,30)" data-element-id="SequenceFlow_1cg2xjx_label" class="djs-element djs-shape"><g class="djs-visual"><text class=" djs-label" style="font-family: Arial,sans-serif; font-size: 11px;"><tspan y="0" x="45"></tspan></text></g><rect class="djs-hit" stroke="#ffffff" fill="none" style="stroke-opacity: 0; stroke-width: 15;" height="20" width="90" y="0" x="0"></rect><rect class="djs-outline" fill="none" style="" height="32" width="102" y="-6" x="-6"></rect></g></g><g class="djs-group"><g style="display: none;" transform="matrix(1,0,0,1,242,74.5)" data-element-id="SequenceFlow_0t2wdeu_label" class="djs-element djs-shape"><g class="djs-visual"><text class=" djs-label" style="font-family: Arial,sans-serif; font-size: 11px;"><tspan y="0" x="45"></tspan></text></g><rect class="djs-hit" stroke="#ffffff" fill="none" style="stroke-opacity: 0; stroke-width: 15;" height="20" width="90" y="0" x="0"></rect><rect class="djs-outline" fill="none" style="" height="32" width="102" y="-6" x="-6"></rect></g></g><g class="djs-group"><g style="display: none;" transform="matrix(1,0,0,1,397,94)" data-element-id="SequenceFlow_1f35x3r_label" class="djs-element djs-shape"><g class="djs-visual"><text class=" djs-label" style="font-family: Arial,sans-serif; font-size: 11px;"><tspan y="0" x="45"></tspan></text></g><rect class="djs-hit" stroke="#ffffff" fill="none" style="stroke-opacity: 0; stroke-width: 15;" height="20" width="90" y="0" x="0"></rect><rect class="djs-outline" fill="none" style="" height="32" width="102" y="-6" x="-6"></rect></g></g><g class="djs-group"><g style="display: none;" transform="matrix(1,0,0,1,397,5)" data-element-id="SequenceFlow_0ihccv7_label" class="djs-element djs-shape"><g class="djs-visual"><text class=" djs-label" style="font-family: Arial,sans-serif; font-size: 11px;"><tspan y="0" x="45"></tspan></text></g><rect class="djs-hit" stroke="#ffffff" fill="none" style="stroke-opacity: 0; stroke-width: 15;" height="20" width="90" y="0" x="0"></rect><rect class="djs-outline" fill="none" style="" height="32" width="102" y="-6" x="-6"></rect></g></g><g class="djs-group"><g style="display: none;" transform="matrix(1,0,0,1,136,97)" data-element-id="StartEvent_1_label" class="djs-element djs-shape"><g class="djs-visual"><text class=" djs-label" style="font-family: Arial,sans-serif; font-size: 11px;"><tspan y="0" x="45"></tspan></text></g><rect class="djs-hit" stroke="#ffffff" fill="none" style="stroke-opacity: 0; stroke-width: 15;" height="20" width="90" y="0" x="0"></rect><rect class="djs-outline" fill="none" style="" height="32" width="102" y="-6" x="-6"></rect></g></g><g class="djs-group"><g style="display: none;" transform="matrix(1,0,0,1,438,73.5)" data-element-id="SequenceFlow_03t5c4a_label" class="djs-element djs-shape"><g class="djs-visual"><text class=" djs-label" style="font-family: Arial,sans-serif; font-size: 11px;"><tspan y="0" x="45"></tspan></text></g><rect class="djs-hit" stroke="#ffffff" fill="none" style="stroke-opacity: 0; stroke-width: 15;" height="20" width="90" y="0" x="0"></rect><rect class="djs-outline" fill="none" style="" height="32" width="102" y="-6" x="-6"></rect></g></g><g class="djs-group"><g style="display: none;" transform="matrix(1,0,0,1,591.5,69)" data-element-id="SequenceFlow_1lstijv_label" class="djs-element djs-shape"><g class="djs-visual"><text class=" djs-label" style="font-family: Arial,sans-serif; font-size: 11px;"><tspan y="0" x="45"></tspan></text></g><rect class="djs-hit" stroke="#ffffff" fill="none" style="stroke-opacity: 0; stroke-width: 15;" height="20" width="90" y="0" x="0"></rect><rect class="djs-outline" fill="none" style="" height="32" width="102" y="-6" x="-6"></rect></g></g><g class="djs-group"><g style="display: block;" transform="matrix(1,0,0,1,304,39)" data-element-id="UserTask_04efqnr" class="djs-element djs-shape"><g class="djs-visual"><rect fill="#ffffff" stroke="#000000" style="stroke-width: 2;" ry="10" rx="10" height="80" width="100" y="0" x="0"></rect><text class=" djs-label" style="font-family: Arial,sans-serif; font-size: 12px;"><tspan y="36.5" x="19">Podaj opis </tspan><tspan y="50.5" x="25">przepisu </tspan></text><path stroke="#000000" fill="none" style="stroke-width: 0.5;" d="m 15,12 c 0.909,-0.845 1.594,-2.049 1.594,-3.385 0,-2.554 -1.805,-4.62199999 -4.357,-4.62199999 -2.55199998,0 -4.28799998,2.06799999 -4.28799998,4.62199999 0,1.348 0.974,2.562 1.89599998,3.405 -0.52899998,0.187 -5.669,2.097 -5.794,4.7560005 v 6.718 h 17 v -6.718 c 0,-2.2980005 -5.5279996,-4.5950005 -6.0509996,-4.7760005 zm -8,6 l 0,5.5 m 11,0 l 0,-5"></path><path stroke="#000000" fill="none" style="stroke-width: 0.5;" d="m 15,12 m 2.162,1.009 c 0,2.4470005 -2.158,4.4310005 -4.821,4.4310005 -2.66499998,0 -4.822,-1.981 -4.822,-4.4310005 "></path><path stroke="#000000" fill="#000000" style="stroke-width: 0.5;" d="m 15,12 m -6.9,-3.80 c 0,0 2.25099998,-2.358 4.27399998,-1.177 2.024,1.181 4.221,1.537 4.124,0.965 -0.098,-0.57 -0.117,-3.79099999 -4.191,-4.13599999 -3.57499998,0.001 -4.20799998,3.36699999 -4.20699998,4.34799999 z"></path></g><rect class="djs-hit" stroke="#ffffff" fill="none" style="stroke-opacity: 0; stroke-width: 15;" height="80" width="100" y="0" x="0"></rect><rect class="djs-outline" fill="none" style="" height="92" width="112" y="-6" x="-6"></rect></g></g><g class="djs-group"><g style="display: block;" data-element-id="SequenceFlow_0h43ip6" class="djs-element djs-connection hover"><g class="djs-visual"><path stroke="#000000" fill="none" style="stroke-width: 2; stroke-linejoin: round; marker-end: url(&quot;#markerSiltb0jv41f5b&quot;);" d="m  199,79L220,79 "></path></g><polyline class="djs-hit" stroke="#ffffff" fill="none" style="stroke-opacity: 0; stroke-width: 15;" points="199,79 220,79 "></polyline><rect class="djs-outline" fill="none" style="" height="12" width="33" y="73" x="193"></rect></g></g><g class="djs-group"><g style="display: block;" data-element-id="SequenceFlow_03t5c4a" class="djs-element djs-connection"><g class="djs-visual"><path stroke="#000000" fill="none" style="stroke-width: 2; stroke-linejoin: round; marker-end: url(&quot;#markerSiltb0jv41f5b&quot;);" d="m  473,79L510,79 "></path></g><polyline class="djs-hit" stroke="#ffffff" fill="none" style="stroke-opacity: 0; stroke-width: 15;" points="473,79 510,79 "></polyline><rect class="djs-outline" fill="none" style="" height="12" width="49" y="73" x="467"></rect></g></g><g class="djs-group"><g style="display: block;" data-element-id="SequenceFlow_1lstijv" class="djs-element djs-connection"><g class="djs-visual"><path stroke="#000000" fill="none" style="stroke-width: 2; stroke-linejoin: round; marker-end: url(&quot;#markerSiltb0jv41f5b&quot;);" d="m  610,79L663,79 "></path></g><polyline class="djs-hit" stroke="#ffffff" fill="none" style="stroke-opacity: 0; stroke-width: 15;" points="610,79 663,79 "></polyline><rect class="djs-outline" fill="none" style="" height="12" width="65" y="73" x="604"></rect></g></g><g class="djs-group"><g style="display: block;" data-element-id="SequenceFlow_1hw94tz" class="djs-element djs-connection"><g class="djs-visual"><path stroke="#000000" fill="none" style="stroke-width: 2; stroke-linejoin: round; marker-end: url(&quot;#markerSiltb0jv41f5b&quot;);" d="m  763,79L819,79 "></path></g><polyline class="djs-hit" stroke="#ffffff" fill="none" style="stroke-opacity: 0; stroke-width: 15;" points="763,79 819,79 "></polyline><rect class="djs-outline" fill="none" style="" height="12" width="68" y="73" x="757"></rect></g></g><g class="djs-group"><g style="display: block;" data-element-id="SequenceFlow_0azqjzv" class="djs-element djs-connection"><g class="djs-visual"><path stroke="#000000" fill="none" style="stroke-width: 2; stroke-linejoin: round; marker-end: url(&quot;#markerSiltb0jv41f5b&quot;);" d="m  682,137L682,164 L773,164 "></path></g><polyline class="djs-hit" stroke="#ffffff" fill="none" style="stroke-opacity: 0; stroke-width: 15;" points="682,137 682,164 773,164 "></polyline><rect class="djs-outline" fill="none" style="" height="39" width="103" y="131" x="676"></rect></g></g><g class="djs-group"><g style="display: block;" data-element-id="SequenceFlow_1cg2xjx" class="djs-element djs-connection"><g class="djs-visual"><path stroke="#000000" fill="none" style="stroke-width: 2; stroke-linejoin: round; marker-end: url(&quot;#markerSiltb0jv41f5b&quot;);" d="m  245,54L245,-19 L304,-19 "></path></g><polyline class="djs-hit" stroke="#ffffff" fill="none" style="stroke-opacity: 0; stroke-width: 15;" points="245,54 245,-19 304,-19 "></polyline><rect class="djs-outline" fill="none" style="" height="85" width="71" y="-25" x="239"></rect></g></g><g class="djs-group"><g style="display: block;" data-element-id="SequenceFlow_0t2wdeu" class="djs-element djs-connection"><g class="djs-visual"><path stroke="#000000" fill="none" style="stroke-width: 2; stroke-linejoin: round; marker-end: url(&quot;#markerSiltb0jv41f5b&quot;);" d="m  245,104L245,177 L304,177 "></path></g><polyline class="djs-hit" stroke="#ffffff" fill="none" style="stroke-opacity: 0; stroke-width: 15;" points="245,104 245,177 304,177 "></polyline><rect class="djs-outline" fill="none" style="" height="85" width="71" y="98" x="239"></rect></g></g><g class="djs-group"><g style="display: block;" data-element-id="SequenceFlow_0igxamn" class="djs-element djs-connection"><g class="djs-visual"><path stroke="#000000" fill="none" style="stroke-width: 2; stroke-linejoin: round; marker-end: url(&quot;#markerSiltb0jv41f5b&quot;);" d="m  270,79L304,79 "></path></g><polyline class="djs-hit" stroke="#ffffff" fill="none" style="stroke-opacity: 0; stroke-width: 15;" points="270,79 304,79 "></polyline><rect class="djs-outline" fill="none" style="" height="12" width="46" y="73" x="264"></rect></g></g><g class="djs-group"><g style="display: block;" data-element-id="SequenceFlow_1f35x3r" class="djs-element djs-connection"><g class="djs-visual"><path stroke="#000000" fill="none" style="stroke-width: 2; stroke-linejoin: round; marker-end: url(&quot;#markerSiltb0jv41f5b&quot;);" d="m  404,177L448,177 L448,104 "></path></g><polyline class="djs-hit" stroke="#ffffff" fill="none" style="stroke-opacity: 0; stroke-width: 15;" points="404,177 448,177 448,104 "></polyline><rect class="djs-outline" fill="none" style="" height="85" width="56" y="98" x="398"></rect></g></g><g class="djs-group"><g style="display: block;" data-element-id="SequenceFlow_0ihccv7" class="djs-element djs-connection"><g class="djs-visual"><path stroke="#000000" fill="none" style="stroke-width: 2; stroke-linejoin: round; marker-end: url(&quot;#markerSiltb0jv41f5b&quot;);" d="m  404,-19L448,-19 L448,54 "></path></g><polyline class="djs-hit" stroke="#ffffff" fill="none" style="stroke-opacity: 0; stroke-width: 15;" points="404,-19 448,-19 448,54 "></polyline><rect class="djs-outline" fill="none" style="" height="85" width="56" y="-25" x="398"></rect></g></g><g class="djs-group"><g style="display: block;" data-element-id="SequenceFlow_0uuptk9" class="djs-element djs-connection"><g class="djs-visual"><path stroke="#000000" fill="none" style="stroke-width: 2; stroke-linejoin: round; marker-end: url(&quot;#markerSiltb0jv41f5b&quot;);" d="m  404,79L423,79 "></path></g><polyline class="djs-hit" stroke="#ffffff" fill="none" style="stroke-opacity: 0; stroke-width: 15;" points="404,79 423,79 "></polyline><rect class="djs-outline" fill="none" style="" height="12" width="31" y="73" x="398"></rect></g></g><g class="djs-group"><g style="display: block;" transform="matrix(1,0,0,1,664,101)" data-element-id="BoundaryEvent_1uoqyos" class="djs-element djs-shape"><g class="djs-visual"><circle fill="#ffffff" stroke="#000000" style="stroke-width: 1;" r="18" cy="18" cx="18"></circle><circle fill="none" stroke="#000000" style="stroke-width: 1;" r="15" cy="18" cx="18"></circle><path stroke="#000000" fill="none" style="stroke-width: 1;" d="M 10.5,8.5 l 14.5,0 l 0,18 l -14.5,0 Z M 12.5,11.5 l 10.5,0 M 12.5,14.5 l 10.5,0 M 12.5,17.5 l 10.5,0 M 12.5,20.5 l 10.5,0 M 12.5,23.5 l 10.5,0 M 12.5,26.5 l 10.5,0 "></path></g><rect class="djs-hit" stroke="#ffffff" fill="none" style="stroke-opacity: 0; stroke-width: 15;" height="36" width="36" y="0" x="0"></rect><rect class="djs-outline" fill="none" style="" height="48" width="48" y="-6" x="-6"></rect></g></g><g class="djs-group"><g style="display: none;" transform="matrix(1,0,0,1,637,137)" data-element-id="BoundaryEvent_1uoqyos_label" class="djs-element djs-shape"><g class="djs-visual"><text class=" djs-label" style="font-family: Arial,sans-serif; font-size: 11px;"><tspan y="0" x="45"></tspan></text></g><rect class="djs-hit" stroke="#ffffff" fill="none" style="stroke-opacity: 0; stroke-width: 15;" height="20" width="90" y="0" x="0"></rect><rect class="djs-outline" fill="none" style="" height="32" width="102" y="-6" x="-6"></rect></g></g><g class="djs-group"><g style="display: block;" transform="matrix(1,0,0,1,683,140.5)" data-element-id="SequenceFlow_0azqjzv_label" class="djs-element djs-shape"><g class="djs-visual"><text class=" djs-label" style="font-family: Arial,sans-serif; font-size: 11px;"><tspan y="13" x="12">Status != 200</tspan></text></g><rect class="djs-hit" stroke="#ffffff" fill="none" style="stroke-opacity: 0; stroke-width: 15;" height="20" width="90" y="0" x="0"></rect><rect class="djs-outline" fill="none" style="" height="32" width="102" y="-6" x="-6"></rect></g></g><g class="djs-group"><g style="display: none;" transform="matrix(1,0,0,1,746,182)" data-element-id="EndEvent_0j04po3_label" class="djs-element djs-shape"><g class="djs-visual"><text class=" djs-label" style="font-family: Arial,sans-serif; font-size: 11px;"><tspan y="0" x="45"></tspan></text></g><rect class="djs-hit" stroke="#ffffff" fill="none" style="stroke-opacity: 0; stroke-width: 15;" height="20" width="90" y="0" x="0"></rect><rect class="djs-outline" fill="none" style="" height="32" width="102" y="-6" x="-6"></rect></g></g><g class="djs-group"><g style="display: none;" transform="matrix(1,0,0,1,792,97)" data-element-id="EndEvent_1t7hhvf_label" class="djs-element djs-shape"><g class="djs-visual"><text class=" djs-label" style="font-family: Arial,sans-serif; font-size: 11px;"><tspan y="0" x="45"></tspan></text></g><rect class="djs-hit" stroke="#ffffff" fill="none" style="stroke-opacity: 0; stroke-width: 15;" height="20" width="90" y="0" x="0"></rect><rect class="djs-outline" fill="none" style="" height="32" width="102" y="-6" x="-6"></rect></g></g><g class="djs-group"><g style="display: none;" transform="matrix(1,0,0,1,746,69)" data-element-id="SequenceFlow_1hw94tz_label" class="djs-element djs-shape"><g class="djs-visual"><text class=" djs-label" style="font-family: Arial,sans-serif; font-size: 11px;"><tspan y="0" x="45"></tspan></text></g><rect class="djs-hit" stroke="#ffffff" fill="none" style="stroke-opacity: 0; stroke-width: 15;" height="20" width="90" y="0" x="0"></rect><rect class="djs-outline" fill="none" style="" height="32" width="102" y="-6" x="-6"></rect></g></g><g class="djs-group"><g style="display: none;" transform="matrix(1,0,0,1,200,104)" data-element-id="ParallelGateway_0rwn28k_label" class="djs-element djs-shape"><g class="djs-visual"><text class=" djs-label" style="font-family: Arial,sans-serif; font-size: 11px;"><tspan y="0" x="45"></tspan></text></g><rect class="djs-hit" stroke="#ffffff" fill="none" style="stroke-opacity: 0; stroke-width: 15;" height="20" width="90" y="0" x="0"></rect><rect class="djs-outline" fill="none" style="" height="32" width="102" y="-6" x="-6"></rect></g></g><g class="djs-group"><g style="display: none;" transform="matrix(1,0,0,1,403,104)" data-element-id="ParallelGateway_10z0dp1_label" class="djs-element djs-shape"><g class="djs-visual"><text class=" djs-label" style="font-family: Arial,sans-serif; font-size: 11px;"><tspan y="0" x="45"></tspan></text></g><rect class="djs-hit" stroke="#ffffff" fill="none" style="stroke-opacity: 0; stroke-width: 15;" height="20" width="90" y="0" x="0"></rect><rect class="djs-outline" fill="none" style="" height="32" width="102" y="-6" x="-6"></rect></g></g><g class="djs-group"><g style="display: none;" transform="matrix(1,0,0,1,236,69)" data-element-id="SequenceFlow_0igxamn_label" class="djs-element djs-shape"><g class="djs-visual"><text class=" djs-label" style="font-family: Arial,sans-serif; font-size: 11px;"><tspan y="0" x="45"></tspan></text></g><rect class="djs-hit" stroke="#ffffff" fill="none" style="stroke-opacity: 0; stroke-width: 15;" height="20" width="90" y="0" x="0"></rect><rect class="djs-outline" fill="none" style="" height="32" width="102" y="-6" x="-6"></rect></g></g><g class="djs-group"><g style="display: none;" transform="matrix(1,0,0,1,362.5,69)" data-element-id="SequenceFlow_0uuptk9_label" class="djs-element djs-shape"><g class="djs-visual"><text class=" djs-label" style="font-family: Arial,sans-serif; font-size: 11px;"><tspan y="0" x="45"></tspan></text></g><rect class="djs-hit" stroke="#ffffff" fill="none" style="stroke-opacity: 0; stroke-width: 15;" height="20" width="90" y="0" x="0"></rect><rect class="djs-outline" fill="none" style="" height="32" width="102" y="-6" x="-6"></rect></g></g></g></g><g xmlns="http://www.w3.org/2000/svg" class="djs-group"><g style="display: block;" transform="matrix(1,0,0,1,471,-217)" data-element-id="Participant_093nahs" class="djs-element djs-shape"><g class="djs-visual"><rect fill="#ffffff" stroke="#000000" style="stroke-width: 2;" ry="0" rx="0" height="116" width="325" y="0" x="0"></rect><polyline stroke="#000000" fill="none" style="stroke-width: 2;" points="30,0 30,116 "></polyline><text transform="matrix(0,-1,1,0,0,116)" class=" djs-label" style="font-family: Arial,sans-serif; font-size: 12px;"><tspan y="18.5" x="32">PYTHON</tspan></text></g><rect class="djs-hit" stroke="#ffffff" fill="none" style="stroke-opacity: 0; stroke-width: 15;" height="116" width="325" y="0" x="0"></rect><rect class="djs-outline" fill="none" style="" height="128" width="337" y="-6" x="-6"></rect></g><g class="djs-children"><g class="djs-group"><g style="display: block;" transform="matrix(1,0,0,1,521,-201)" data-element-id="ReceiveTask_1n1dycz" class="djs-element djs-shape"><g class="djs-visual"><rect fill="#ffffff" stroke="#000000" style="stroke-width: 2;" ry="10" rx="10" height="80" width="100" y="0" x="0"></rect><text class=" djs-label" style="font-family: Arial,sans-serif; font-size: 12px;"><tspan y="43.5" x="10.5">Dodaj przepis</tspan></text><path stroke="#000000" fill="none" style="stroke-width: 1;" d="m 6.3,5.6000000000000005 l 0,12.6 l 18.900000000000002,0 l 0,-12.6 z l 9.450000000000001,5.4 l 9.450000000000001,-5.4"></path></g><rect class="djs-hit" stroke="#ffffff" fill="none" style="stroke-opacity: 0; stroke-width: 15;" height="80" width="100" y="0" x="0"></rect><rect class="djs-outline" fill="none" style="" height="92" width="112" y="-6" x="-6"></rect></g></g><g class="djs-group"><g style="display: block;" transform="matrix(1,0,0,1,664,-201)" data-element-id="SendTask_1cvxadx" class="djs-element djs-shape"><g class="djs-visual"><rect fill="#ffffff" stroke="#000000" style="stroke-width: 2;" ry="10" rx="10" height="80" width="100" y="0" x="0"></rect><text class=" djs-label" style="font-family: Arial,sans-serif; font-size: 12px;"><tspan y="36.5" x="32.5">Wyślij </tspan><tspan y="50.5" x="10.5">potwierdzenie </tspan></text><path stroke="#ffffff" fill="#000000" style="stroke-width: 1;" d="m 5.984999999999999,4.997999999999999 l 0,14 l 21,0 l 0,-14 z l 10.5,6 l 10.5,-6"></path></g><rect class="djs-hit" stroke="#ffffff" fill="none" style="stroke-opacity: 0; stroke-width: 15;" height="80" width="100" y="0" x="0"></rect><rect class="djs-outline" fill="none" style="" height="92" width="112" y="-6" x="-6"></rect></g></g><g class="djs-group"><g style="display: none;" transform="matrix(1,0,0,1,603.5,-171)" data-element-id="SequenceFlow_1psq8zx_label" class="djs-element djs-shape"><g class="djs-visual"><text class=" djs-label" style="font-family: Arial,sans-serif; font-size: 11px;"><tspan y="0" x="45"></tspan></text></g><rect class="djs-hit" stroke="#ffffff" fill="none" style="stroke-opacity: 0; stroke-width: 15;" height="20" width="90" y="0" x="0"></rect><rect class="djs-outline" fill="none" style="" height="32" width="102" y="-6" x="-6"></rect></g></g><g class="djs-group"><g style="display: block;" data-element-id="SequenceFlow_1psq8zx" class="djs-element djs-connection"><g class="djs-visual"><path stroke="#000000" fill="none" style="stroke-width: 2; stroke-linejoin: round; marker-end: url(&quot;#markerSiltb0jv41f5b&quot;);" d="m  621,-161L664,-161 "></path></g><polyline class="djs-hit" stroke="#ffffff" fill="none" style="stroke-opacity: 0; stroke-width: 15;" points="621,-161 664,-161 "></polyline><rect class="djs-outline" fill="none" style="" height="12" width="55" y="-167" x="615"></rect></g></g></g></g><g xmlns="http://www.w3.org/2000/svg" class="djs-group"><g style="display: block;" data-element-id="MessageFlow_1k5rs1h" class="djs-element djs-connection"><g class="djs-visual"><path stroke="#000000" fill="none" style="stroke-width: 1.5px; marker-end: url(&quot;#markerSiltb0jv41f5f&quot;); marker-start: url(&quot;#markerSiltb0jv41f5d&quot;); stroke-dasharray: 10, 12; stroke-linecap: round; stroke-linejoin: round;" d="m  560,39L560,-121 "></path></g><polyline class="djs-hit" stroke="#ffffff" fill="none" style="stroke-opacity: 0; stroke-width: 15;" points="560,39 560,-121 "></polyline><rect class="djs-outline" fill="none" style="" height="172" width="12" y="-127" x="554"></rect></g></g><g xmlns="http://www.w3.org/2000/svg" class="djs-group"><g style="display: none;" transform="matrix(1,0,0,1,526,-55.5)" data-element-id="MessageFlow_1k5rs1h_label" class="djs-element djs-shape"><g class="djs-visual"><text class=" djs-label" style="font-family: Arial,sans-serif; font-size: 11px;"><tspan y="0" x="45"></tspan></text></g><rect class="djs-hit" stroke="#ffffff" fill="none" style="stroke-opacity: 0; stroke-width: 15;" height="20" width="90" y="0" x="0"></rect><rect class="djs-outline" fill="none" style="" height="32" width="102" y="-6" x="-6"></rect></g></g><g xmlns="http://www.w3.org/2000/svg" class="djs-group"><g style="display: block;" data-element-id="MessageFlow_0tkhk87" class="djs-element djs-connection"><g class="djs-visual"><path stroke="#000000" fill="none" style="stroke-width: 1.5px; marker-end: url(&quot;#markerSiltb0jv41f5f&quot;); marker-start: url(&quot;#markerSiltb0jv41f5d&quot;); stroke-dasharray: 10, 12; stroke-linecap: round; stroke-linejoin: round;" d="m  714,-121L714,39 "></path></g><polyline class="djs-hit" stroke="#ffffff" fill="none" style="stroke-opacity: 0; stroke-width: 15;" points="714,-121 714,39 "></polyline><rect class="djs-outline" fill="none" style="" height="172" width="12" y="-127" x="708"></rect></g></g><g xmlns="http://www.w3.org/2000/svg" class="djs-group"><g style="display: none;" transform="matrix(1,0,0,1,680,-30.5)" data-element-id="MessageFlow_0tkhk87_label" class="djs-element djs-shape"><g class="djs-visual"><text class=" djs-label" style="font-family: Arial,sans-serif; font-size: 11px;"><tspan y="0" x="45"></tspan></text></g><rect class="djs-hit" stroke="#ffffff" fill="none" style="stroke-opacity: 0; stroke-width: 15;" height="20" width="90" y="0" x="0"></rect><rect class="djs-outline" fill="none" style="" height="32" width="102" y="-6" x="-6"></rect></g></g></svg>