<?xml version="1.0" encoding="utf-8"?>
<!-- created with bpmn-js / http://bpmn.io -->
<!DOCTYPE svg PUBLIC "-//W3C//DTD SVG 1.1//EN" "http://www.w3.org/Graphics/SVG/1.1/DTD/svg11.dtd">
<svg xmlns="http://www.w3.org/2000/svg" xmlns:xlink="http://www.w3.org/1999/xlink" width="520" height="336" viewBox="363 -127 520 336" version="1.1"><defs><marker viewBox="0 0 20 20" markerWidth="10" markerHeight="10" orient="auto" refX="11" refY="10" id="markerSiltb0jv41f5b"><path d="M 1 5 L 11 10 L 1 15 Z" style="stroke-width: 1; stroke-linecap: round; stroke-dasharray: 10000, 1;" fill="#000000"/></marker><marker viewBox="0 0 20 20" markerWidth="20" markerHeight="20" orient="auto" refX="6" refY="6" id="markerSiltb0jv41f5d"><circle cx="6" cy="6" r="3.5" style="stroke-width: 1; stroke-linecap: round; stroke-dasharray: 10000, 1;" fill="#ffffff" stroke="#000000"/></marker><marker viewBox="0 0 20 20" markerWidth="20" markerHeight="20" orient="auto" refX="8.5" refY="5" id="markerSiltb0jv41f5f"><path d="m 1 5 l 0 -3 l 7 3 l -7 3 z" style="stroke-width: 1; stroke-linecap: butt; stroke-dasharray: 10000, 1;" fill="#ffffff" stroke="#000000"/></marker><marker viewBox="0 0 20 20" markerWidth="10" markerHeight="10" orient="auto" refX="1" refY="10" id="markerSiltb0jv41f5h"><path d="M 11 5 L 1 10 L 11 15" style="stroke-width: 1.5; stroke-linecap: round; stroke-dasharray: 10000, 1;" fill="none" stroke="#000000"/></marker><marker viewBox="0 0 20 20" markerWidth="10" markerHeight="10" orient="auto" refX="12" refY="10" id="markerSiltb0jv41f5j"><path d="M 1 5 L 11 10 L 1 15" style="stroke-width: 1.5; stroke-linecap: round; stroke-dasharray: 10000, 1;" fill="none" stroke="#000000"/></marker><marker viewBox="0 0 20 20" markerWidth="10" markerHeight="10" orient="auto" refX="-1" refY="10" id="markerSiltb0jv41f5l"><path d="M 0 10 L 8 6 L 16 10 L 8 14 Z" style="stroke-width: 1; stroke-linecap: round; stroke-dasharray: 10000, 1;" fill="#ffffff" stroke="#000000"/></marker><marker viewBox="0 0 20 20" markerWidth="10" markerHeight="10" orient="auto" refX="-5" refY="10" id="markerSiltb0jv41f5n"><path d="M 1 4 L 5 16" style="stroke-width: 1; stroke-linecap: round; stroke-dasharray: 10000, 1;" fill="#000000" stroke="#000000"/></marker></defs><g xmlns="http://www.w3.org/2000/svg" class="djs-group"><g style="display: block;" transform="matrix(1,0,0,1,369,20)" data-element-id="Participant_1509f4h" class="djs-element djs-shape"><g class="djs-visual"><rect fill="#ffffff" stroke="#000000" style="stroke-width: 2;" ry="0" rx="0" height="183" width="508" y="0" x="0"></rect><polyline stroke="#000000" fill="none" style="stroke-width: 2;" points="30,0 30,183 "></polyline><text transform="matrix(0,-1,1,0,0,183)" class=" djs-label" style="font-family: Arial,sans-serif; font-size: 12px;"><tspan y="18.5" x="62.5">ANDROID</tspan></text></g><rect class="djs-hit" stroke="#ffffff" fill="none" style="stroke-opacity: 0; stroke-width: 15;" height="183" width="508" y="0" x="0"></rect><rect class="djs-outline" fill="none" style="" height="195" width="520" y="-6" x="-6"></rect></g><g class="djs-children"><g class="djs-group"><g style="display: block;" transform="matrix(1,0,0,1,512,40)" data-element-id="SendTask_0e920uc" class="djs-element djs-shape"><g class="djs-visual"><rect fill="#ffffff" stroke="#000000" style="stroke-width: 2;" ry="10" rx="10" height="80" width="100" y="0" x="0"></rect><text class=" djs-label" style="font-family: Arial,sans-serif; font-size: 12px;"><tspan y="36.5" x="28">Pobierz </tspan><tspan y="50.5" x="26">przepisy </tspan></text><path stroke="#ffffff" fill="#000000" style="stroke-width: 1;" d="m 5.984999999999999,4.997999999999999 l 0,14 l 21,0 l 0,-14 z l 10.5,6 l 10.5,-6"></path></g><rect class="djs-hit" stroke="#ffffff" fill="none" style="stroke-opacity: 0; stroke-width: 15;" height="80" width="100" y="0" x="0"></rect><rect class="djs-outline" fill="none" style="" height="92" width="112" y="-6" x="-6"></rect></g></g><g class="djs-group"><g style="display: block;" transform="matrix(1,0,0,1,665,40)" data-element-id="ReceiveTask_0b3byai" class="djs-element djs-shape"><g class="djs-visual"><rect fill="#ffffff" stroke="#000000" style="stroke-width: 2;" ry="10" rx="10" height="80" width="100" y="0" x="0"></rect><text class=" djs-label" style="font-family: Arial,sans-serif; font-size: 12px;"><tspan y="36.5" x="24.5">Wyświetl </tspan><tspan y="50.5" x="26">przepisy </tspan></text><path stroke="#000000" fill="none" style="stroke-width: 1;" d="m 6.3,5.6000000000000005 l 0,12.6 l 18.900000000000002,0 l 0,-12.6 z l 9.450000000000001,5.4 l 9.450000000000001,-5.4"></path></g><rect class="djs-hit" stroke="#ffffff" fill="none" style="stroke-opacity: 0; stroke-width: 15;" height="80" width="100" y="0" x="0"></rect><rect class="djs-outline" fill="none" style="" height="92" width="112" y="-6" x="-6"></rect></g></g><g class="djs-group"><g style="display: block;" transform="matrix(1,0,0,1,775,147)" data-element-id="EndEvent_0j04po3" class="djs-element djs-shape"><g class="djs-visual"><circle fill="#ffffff" stroke="#000000" style="stroke-width: 4;" r="18" cy="18" cx="18"></circle><path stroke="#000000" fill="#000000" style="stroke-width: 1;" d="m 7.92,18 9,-6.5 0,13 z m 9.3,-0.4 8.7,-6.1 0,13 -8.7,-6.1 z"></path></g><rect class="djs-hit" stroke="#ffffff" fill="none" style="stroke-opacity: 0; stroke-width: 15;" height="36" width="36" y="0" x="0"></rect><rect class="djs-outline" fill="none" style="" height="48" width="48" y="-6" x="-6"></rect></g></g><g class="djs-group"><g style="display: block;" transform="matrix(1,0,0,1,821,62)" data-element-id="EndEvent_1t7hhvf" class="djs-element djs-shape"><g class="djs-visual"><circle fill="#ffffff" stroke="#000000" style="stroke-width: 4;" r="18" cy="18" cx="18"></circle></g><rect class="djs-hit" stroke="#ffffff" fill="none" style="stroke-opacity: 0; stroke-width: 15;" height="36" width="36" y="0" x="0"></rect><rect class="djs-outline" fill="none" style="" height="48" width="48" y="-6" x="-6"></rect></g></g><g class="djs-group"><g style="display: none;" transform="matrix(1,0,0,1,593.5,70)" data-element-id="SequenceFlow_1lstijv_label" class="djs-element djs-shape"><g class="djs-visual"><text class=" djs-label" style="font-family: Arial,sans-serif; font-size: 11px;"><tspan y="0" x="45"></tspan></text></g><rect class="djs-hit" stroke="#ffffff" fill="none" style="stroke-opacity: 0; stroke-width: 15;" height="20" width="90" y="0" x="0"></rect><rect class="djs-outline" fill="none" style="" height="32" width="102" y="-6" x="-6"></rect></g></g><g class="djs-group"><g style="display: block;" transform="matrix(1,0,0,1,419,62)" data-element-id="StartEvent_1" class="djs-element djs-shape"><g class="djs-visual"><circle fill="#ffffff" stroke="#000000" style="stroke-width: 2;" r="18" cy="18" cx="18"></circle></g><rect class="djs-hit" stroke="#ffffff" fill="none" style="stroke-opacity: 0; stroke-width: 15;" height="36" width="36" y="0" x="0"></rect><rect class="djs-outline" fill="none" style="" height="48" width="48" y="-6" x="-6"></rect></g></g><g class="djs-group"><g style="display: block;" data-element-id="SequenceFlow_1lstijv" class="djs-element djs-connection"><g class="djs-visual"><path stroke="#000000" fill="none" style="stroke-width: 2; stroke-linejoin: round; marker-end: url(&quot;#markerSiltb0jv41f5b&quot;);" d="m  612,80L665,80 "></path></g><polyline class="djs-hit" stroke="#ffffff" fill="none" style="stroke-opacity: 0; stroke-width: 15;" points="612,80 665,80 "></polyline><rect class="djs-outline" fill="none" style="" height="12" width="65" y="74" x="606"></rect></g></g><g class="djs-group"><g style="display: block;" data-element-id="SequenceFlow_1hw94tz" class="djs-element djs-connection"><g class="djs-visual"><path stroke="#000000" fill="none" style="stroke-width: 2; stroke-linejoin: round; marker-end: url(&quot;#markerSiltb0jv41f5b&quot;);" d="m  765,80L821,80 "></path></g><polyline class="djs-hit" stroke="#ffffff" fill="none" style="stroke-opacity: 0; stroke-width: 15;" points="765,80 821,80 "></polyline><rect class="djs-outline" fill="none" style="" height="12" width="68" y="74" x="759"></rect></g></g><g class="djs-group"><g style="display: block;" data-element-id="SequenceFlow_0azqjzv" class="djs-element djs-connection"><g class="djs-visual"><path stroke="#000000" fill="none" style="stroke-width: 2; stroke-linejoin: round; marker-end: url(&quot;#markerSiltb0jv41f5b&quot;);" d="m  684,138L684,165 L775,165 "></path></g><polyline class="djs-hit" stroke="#ffffff" fill="none" style="stroke-opacity: 0; stroke-width: 15;" points="684,138 684,165 775,165 "></polyline><rect class="djs-outline" fill="none" style="" height="39" width="103" y="132" x="678"></rect></g></g><g class="djs-group"><g style="display: block;" transform="matrix(1,0,0,1,666,102)" data-element-id="BoundaryEvent_1uoqyos" class="djs-element djs-shape"><g class="djs-visual"><circle fill="#ffffff" stroke="#000000" style="stroke-width: 1;" r="18" cy="18" cx="18"></circle><circle fill="none" stroke="#000000" style="stroke-width: 1;" r="15" cy="18" cx="18"></circle><path stroke="#000000" fill="none" style="stroke-width: 1;" d="M 10.5,8.5 l 14.5,0 l 0,18 l -14.5,0 Z M 12.5,11.5 l 10.5,0 M 12.5,14.5 l 10.5,0 M 12.5,17.5 l 10.5,0 M 12.5,20.5 l 10.5,0 M 12.5,23.5 l 10.5,0 M 12.5,26.5 l 10.5,0 "></path></g><rect class="djs-hit" stroke="#ffffff" fill="none" style="stroke-opacity: 0; stroke-width: 15;" height="36" width="36" y="0" x="0"></rect><rect class="djs-outline" fill="none" style="" height="48" width="48" y="-6" x="-6"></rect></g></g><g class="djs-group"><g style="display: none;" transform="matrix(1,0,0,1,639,138)" data-element-id="BoundaryEvent_1uoqyos_label" class="djs-element djs-shape"><g class="djs-visual"><text class=" djs-label" style="font-family: Arial,sans-serif; font-size: 11px;"><tspan y="0" x="45"></tspan></text></g><rect class="djs-hit" stroke="#ffffff" fill="none" style="stroke-opacity: 0; stroke-width: 15;" height="20" width="90" y="0" x="0"></rect><rect class="djs-outline" fill="none" style="" height="32" width="102" y="-6" x="-6"></rect></g></g><g class="djs-group"><g style="display: block;" transform="matrix(1,0,0,1,685,141.5)" data-element-id="SequenceFlow_0azqjzv_label" class="djs-element djs-shape"><g class="djs-visual"><text class=" djs-label" style="font-family: Arial,sans-serif; font-size: 11px;"><tspan y="13" x="12">Status != 200</tspan></text></g><rect class="djs-hit" stroke="#ffffff" fill="none" style="stroke-opacity: 0; stroke-width: 15;" height="20" width="90" y="0" x="0"></rect><rect class="djs-outline" fill="none" style="" height="32" width="102" y="-6" x="-6"></rect></g></g><g class="djs-group"><g style="display: none;" transform="matrix(1,0,0,1,748,183)" data-element-id="EndEvent_0j04po3_label" class="djs-element djs-shape"><g class="djs-visual"><text class=" djs-label" style="font-family: Arial,sans-serif; font-size: 11px;"><tspan y="0" x="45"></tspan></text></g><rect class="djs-hit" stroke="#ffffff" fill="none" style="stroke-opacity: 0; stroke-width: 15;" height="20" width="90" y="0" x="0"></rect><rect class="djs-outline" fill="none" style="" height="32" width="102" y="-6" x="-6"></rect></g></g><g class="djs-group"><g style="display: none;" transform="matrix(1,0,0,1,794,98)" data-element-id="EndEvent_1t7hhvf_label" class="djs-element djs-shape"><g class="djs-visual"><text class=" djs-label" style="font-family: Arial,sans-serif; font-size: 11px;"><tspan y="0" x="45"></tspan></text></g><rect class="djs-hit" stroke="#ffffff" fill="none" style="stroke-opacity: 0; stroke-width: 15;" height="20" width="90" y="0" x="0"></rect><rect class="djs-outline" fill="none" style="" height="32" width="102" y="-6" x="-6"></rect></g></g><g class="djs-group"><g style="display: none;" transform="matrix(1,0,0,1,748,70)" data-element-id="SequenceFlow_1hw94tz_label" class="djs-element djs-shape"><g class="djs-visual"><text class=" djs-label" style="font-family: Arial,sans-serif; font-size: 11px;"><tspan y="0" x="45"></tspan></text></g><rect class="djs-hit" stroke="#ffffff" fill="none" style="stroke-opacity: 0; stroke-width: 15;" height="20" width="90" y="0" x="0"></rect><rect class="djs-outline" fill="none" style="" height="32" width="102" y="-6" x="-6"></rect></g></g><g class="djs-group"><g style="display: none;" transform="matrix(1,0,0,1,392,98)" data-element-id="StartEvent_1_label" class="djs-element djs-shape"><g class="djs-visual"><text class=" djs-label" style="font-family: Arial,sans-serif; font-size: 11px;"><tspan y="0" x="45"></tspan></text></g><rect class="djs-hit" stroke="#ffffff" fill="none" style="stroke-opacity: 0; stroke-width: 15;" height="20" width="90" y="0" x="0"></rect><rect class="djs-outline" fill="none" style="" height="32" width="102" y="-6" x="-6"></rect></g></g><g class="djs-group"><g style="display: block;" data-element-id="SequenceFlow_172leyz" class="djs-element djs-connection"><g class="djs-visual"><path stroke="#000000" fill="none" style="stroke-width: 2; stroke-linejoin: round; marker-end: url(&quot;#markerSiltb0jv41f5b&quot;);" d="m  455,80L512,80 "></path></g><polyline class="djs-hit" stroke="#ffffff" fill="none" style="stroke-opacity: 0; stroke-width: 15;" points="455,80 512,80 "></polyline><rect class="djs-outline" fill="none" style="" height="12" width="69" y="74" x="449"></rect></g></g><g class="djs-group"><g style="display: none;" transform="matrix(1,0,0,1,438.5,70)" data-element-id="SequenceFlow_172leyz_label" class="djs-element djs-shape"><g class="djs-visual"><text class=" djs-label" style="font-family: Arial,sans-serif; font-size: 11px;"><tspan y="0" x="45"></tspan></text></g><rect class="djs-hit" stroke="#ffffff" fill="none" style="stroke-opacity: 0; stroke-width: 15;" height="20" width="90" y="0" x="0"></rect><rect class="djs-outline" fill="none" style="" height="32" width="102" y="-6" x="-6"></rect></g></g></g></g><g xmlns="http://www.w3.org/2000/svg" class="djs-group"><g style="display: block;" transform="matrix(1,0,0,1,460,-121)" data-element-id="Participant_093nahs" class="djs-element djs-shape selected"><g class="djs-visual"><rect fill="#ffffff" stroke="#000000" style="stroke-width: 2;" ry="0" rx="0" height="116" width="325" y="0" x="0"></rect><polyline stroke="#000000" fill="none" style="stroke-width: 2;" points="30,0 30,116 "></polyline><text transform="matrix(0,-1,1,0,0,116)" class=" djs-label" style="font-family: Arial,sans-serif; font-size: 12px;"><tspan y="18.5" x="32">PYTHON</tspan></text></g><rect class="djs-hit" stroke="#ffffff" fill="none" style="stroke-opacity: 0; stroke-width: 15;" height="116" width="325" y="0" x="0"></rect><rect class="djs-outline" fill="none" style="" height="128" width="337" y="-6" x="-6"></rect></g><g class="djs-children"><g class="djs-group"><g style="display: block;" transform="matrix(1,0,0,1,510,-105)" data-element-id="ReceiveTask_1n1dycz" class="djs-element djs-shape"><g class="djs-visual"><rect fill="#ffffff" stroke="#000000" style="stroke-width: 2;" ry="10" rx="10" height="80" width="100" y="0" x="0"></rect><text class=" djs-label" style="font-family: Arial,sans-serif; font-size: 12px;"><tspan y="36.5" x="6.5">Znajdź przepisy</tspan><tspan y="50.5" x="6">dla użytkownika </tspan></text><path stroke="#000000" fill="none" style="stroke-width: 1;" d="m 6.3,5.6000000000000005 l 0,12.6 l 18.900000000000002,0 l 0,-12.6 z l 9.450000000000001,5.4 l 9.450000000000001,-5.4"></path></g><rect class="djs-hit" stroke="#ffffff" fill="none" style="stroke-opacity: 0; stroke-width: 15;" height="80" width="100" y="0" x="0"></rect><rect class="djs-outline" fill="none" style="" height="92" width="112" y="-6" x="-6"></rect></g></g><g class="djs-group"><g style="display: block;" transform="matrix(1,0,0,1,653,-105)" data-element-id="SendTask_1cvxadx" class="djs-element djs-shape"><g class="djs-visual"><rect fill="#ffffff" stroke="#000000" style="stroke-width: 2;" ry="10" rx="10" height="80" width="100" y="0" x="0"></rect><text class=" djs-label" style="font-family: Arial,sans-serif; font-size: 12px;"><tspan y="43.5" x="8.5">Wyślij przepisy</tspan></text><path stroke="#ffffff" fill="#000000" style="stroke-width: 1;" d="m 5.984999999999999,4.997999999999999 l 0,14 l 21,0 l 0,-14 z l 10.5,6 l 10.5,-6"></path></g><rect class="djs-hit" stroke="#ffffff" fill="none" style="stroke-opacity: 0; stroke-width: 15;" height="80" width="100" y="0" x="0"></rect><rect class="djs-outline" fill="none" style="" height="92" width="112" y="-6" x="-6"></rect></g></g><g class="djs-group"><g style="display: none;" transform="matrix(1,0,0,1,592.5,-75)" data-element-id="SequenceFlow_1psq8zx_label" class="djs-element djs-shape"><g class="djs-visual"><text class=" djs-label" style="font-family: Arial,sans-serif; font-size: 11px;"><tspan y="0" x="45"></tspan></text></g><rect class="djs-hit" stroke="#ffffff" fill="none" style="stroke-opacity: 0; stroke-width: 15;" height="20" width="90" y="0" x="0"></rect><rect class="djs-outline" fill="none" style="" height="32" width="102" y="-6" x="-6"></rect></g></g><g class="djs-group"><g style="display: block;" data-element-id="SequenceFlow_1psq8zx" class="djs-element djs-connection"><g class="djs-visual"><path stroke="#000000" fill="none" style="stroke-width: 2; stroke-linejoin: round; marker-end: url(&quot;#markerSiltb0jv41f5b&quot;);" d="m  610,-65L653,-65 "></path></g><polyline class="djs-hit" stroke="#ffffff" fill="none" style="stroke-opacity: 0; stroke-width: 15;" points="610,-65 653,-65 "></polyline><rect class="djs-outline" fill="none" style="" height="12" width="55" y="-71" x="604"></rect></g></g></g></g><g xmlns="http://www.w3.org/2000/svg" class="djs-group"><g style="display: block;" data-element-id="MessageFlow_1k5rs1h" class="djs-element djs-connection"><g class="djs-visual"><path stroke="#000000" fill="none" style="stroke-width: 1.5px; marker-end: url(&quot;#markerSiltb0jv41f5f&quot;); marker-start: url(&quot;#markerSiltb0jv41f5d&quot;); stroke-dasharray: 10, 12; stroke-linecap: round; stroke-linejoin: round;" d="m  562,40L562,-25 "></path></g><polyline class="djs-hit" stroke="#ffffff" fill="none" style="stroke-opacity: 0; stroke-width: 15;" points="562,40 562,-25 "></polyline><rect class="djs-outline" fill="none" style="" height="77" width="12" y="-31" x="556"></rect></g></g><g xmlns="http://www.w3.org/2000/svg" class="djs-group"><g style="display: none;" transform="matrix(1,0,0,1,526,-55.5)" data-element-id="MessageFlow_1k5rs1h_label" class="djs-element djs-shape"><g class="djs-visual"><text class=" djs-label" style="font-family: Arial,sans-serif; font-size: 11px;"><tspan y="0" x="45"></tspan></text></g><rect class="djs-hit" stroke="#ffffff" fill="none" style="stroke-opacity: 0; stroke-width: 15;" height="20" width="90" y="0" x="0"></rect><rect class="djs-outline" fill="none" style="" height="32" width="102" y="-6" x="-6"></rect></g></g><g xmlns="http://www.w3.org/2000/svg" class="djs-group"><g style="display: block;" data-element-id="MessageFlow_0tkhk87" class="djs-element djs-connection"><g class="djs-visual"><path stroke="#000000" fill="none" style="stroke-width: 1.5px; marker-end: url(&quot;#markerSiltb0jv41f5f&quot;); marker-start: url(&quot;#markerSiltb0jv41f5d&quot;); stroke-dasharray: 10, 12; stroke-linecap: round; stroke-linejoin: round;" d="m  703,-25L703,40 "></path></g><polyline class="djs-hit" stroke="#ffffff" fill="none" style="stroke-opacity: 0; stroke-width: 15;" points="703,-25 703,40 "></polyline><rect class="djs-outline" fill="none" style="" height="77" width="12" y="-31" x="697"></rect></g></g><g xmlns="http://www.w3.org/2000/svg" class="djs-group"><g style="display: none;" transform="matrix(1,0,0,1,680,-30.5)" data-element-id="MessageFlow_0tkhk87_label" class="djs-element djs-shape"><g class="djs-visual"><text class=" djs-label" style="font-family: Arial,sans-serif; font-size: 11px;"><tspan y="0" x="45"></tspan></text></g><rect class="djs-hit" stroke="#ffffff" fill="none" style="stroke-opacity: 0; stroke-width: 15;" height="20" width="90" y="0" x="0"></rect><rect class="djs-outline" fill="none" style="" height="32" width="102" y="-6" x="-6"></rect></g></g></svg>